<svg width="454" height="454" viewBox="0 0 454 454" fill="none" xmlns="http://www.w3.org/2000/svg">
<g clip-path="url(#clip0)">
<path d="M448.893 173.513L375.969 112.791V63.8437C375.969 60.081 374.474 56.4723 371.814 53.8117C369.153 51.151 365.544 49.6562 361.781 49.6562C358.019 49.6562 354.41 51.151 351.749 53.8117C349.089 56.4723 347.594 60.081 347.594 63.8437V89.0975L254.24 11.35C246.592 4.97981 236.954 1.49146 227 1.49146C217.047 1.49146 207.408 4.97981 199.76 11.35L5.10769 173.513C2.21036 175.921 0.388344 179.382 0.0424564 183.133C-0.303431 186.885 0.855145 190.62 3.26331 193.518C5.67148 196.415 9.13197 198.237 12.8835 198.583C16.6351 198.929 20.3704 197.77 23.2677 195.362L217.92 33.1278C220.469 31.0044 223.682 29.8416 227 29.8416C230.318 29.8416 233.531 31.0044 236.08 33.1278L397.25 167.413V411.437C397.25 415.2 395.755 418.809 393.095 421.47C390.434 424.13 386.825 425.625 383.063 425.625H312.125V269.562C312.125 258.274 307.641 247.448 299.659 239.466C291.677 231.484 280.851 227 269.563 227H184.438C173.149 227 162.323 231.484 154.341 239.466C146.359 247.448 141.875 258.274 141.875 269.562V425.625H70.9377C67.1749 425.625 63.5663 424.13 60.9056 421.47C58.2449 418.809 56.7502 415.2 56.7502 411.437V241.187C56.7502 237.425 55.2554 233.816 52.5948 231.155C49.9341 228.495 46.3254 227 42.5627 227C38.7999 227 35.1913 228.495 32.5306 231.155C29.8699 233.816 28.3752 237.425 28.3752 241.187V411.437C28.3752 422.726 32.8594 433.552 40.8415 441.534C48.8235 449.516 59.6494 454 70.9377 454H383.063C394.351 454 405.177 449.516 413.159 441.534C421.141 433.552 425.625 422.726 425.625 411.437V191.106L430.733 195.362C433.285 197.477 436.498 198.631 439.813 198.625C442.734 198.631 445.586 197.734 447.979 196.059C450.372 194.383 452.189 192.009 453.183 189.262C454.176 186.514 454.297 183.527 453.529 180.709C452.761 177.89 451.142 175.377 448.893 173.513ZM170.25 425.625V269.562C170.25 265.8 171.745 262.191 174.406 259.53C177.066 256.87 180.675 255.375 184.438 255.375H269.563C273.325 255.375 276.934 256.87 279.595 259.53C282.255 262.191 283.75 265.8 283.75 269.562V425.625H170.25Z" fill="#4F5962"/>
<path d="M212.812 354.688C220.648 354.688 227 348.336 227 340.5C227 332.664 220.648 326.312 212.812 326.312C204.977 326.312 198.625 332.664 198.625 340.5C198.625 348.336 204.977 354.688 212.812 354.688Z" fill="#F6B186"/>
</g>
<defs>
<clipPath id="clip0">
<rect width="454" height="454" fill="white"/>
</clipPath>
</defs>
</svg>
